<?xml version="1.0" encoding="UTF-8"?>
<svg id="Favicon_04" xmlns="http://www.w3.org/2000/svg" xmlns:i="http://ns.adobe.com/AdobeIllustrator/10.0/" version="1.1" viewBox="0 0 48 48">
  <!-- Generator: Adobe Illustrator 30.3.0, SVG Export Plug-In . SVG Version: 2.1.3 Build 182)  -->
  <defs>
    <style>
      .st0 {
        isolation: isolate;
        opacity: .55;
      }
      .st0, .st1 {
        fill: #f8f9fa;
      }
      .st2 {
        fill: #2f6f73;
      }
      .st3 {
        fill: #dadde1;
      }
    </style>
  </defs>
  <rect class="st2" y=".06" width="48" height="48" rx="9" ry="9"/>
  <path class="st0" d="M6.26,28.54c7.37,0,14.74,0,22.11,0,.32.01.71-.06.95.21,1.3,1.31,2.61,2.61,3.91,3.92.46.43.87.93,1.38,1.31,2.37.03,4.73,0,7.1,0,.01.82,0,1.65,0,2.47-2.73-.01-5.46,0-8.19,0-1.72-1.67-3.39-3.39-5.1-5.08-.17-.15-.31-.43-.57-.41-7.2,0-14.4,0-21.61,0v-2.42h.01Z"/>
  <path class="st1" d="M33.48,11.97c.13-.11.23-.31.42-.29,2.61,0,5.22,0,7.83,0,0,.83,0,1.66,0,2.49-2.3,0-4.6,0-6.9,0-1.75,1.73-3.51,3.45-5.24,5.19-.19.17-.47.1-.7.11-7.54,0-15.08,0-22.62,0,0-.81,0-1.62,0-2.42,1.26,0,2.51-.02,3.77,0,2.07-.05,4.13.02,6.2-.01,3.5,0,7.01,0,10.51,0,.54.02,1.09,0,1.64-.01,1.7-1.67,3.39-3.37,5.09-5.05h0Z"/>
  <path class="st3" d="M35.01,17.71c.16-.17.41-.16.62-.17,2.03,0,4.07.01,6.11,0,.01.84.03,1.66,0,2.5-1.85.01-3.71,0-5.56,0-1.06,1.07-2.13,2.14-3.19,3.22-.28.3-.56.59-.86.86,1.36,1.32,2.67,2.69,4.04,4,.02.01.06.05.08.06,1.63.02,3.26-.01,4.88,0,.19,0,.39-.01.58-.06h.03c-.01.84,0,1.68,0,2.52-.23-.05-.46-.08-.69-.07-1.69,0-3.39,0-5.08,0-.23,0-.45.02-.67.06-.08-.03-.19-.04-.25-.11-1.65-1.66-3.32-3.3-4.96-4.95-.15-.16-.34-.34-.58-.33-7.75.01-15.5,0-23.26,0,.01-.81,0-1.63,0-2.44,7.78-.01,15.56,0,23.33,0,.16,0,.32-.08.43-.19,1.65-1.64,3.3-3.28,4.97-4.92h.01Z"/>
</svg>
