<?xml version="1.0" standalone="no"?>
<!DOCTYPE svg PUBLIC "-//W3C//DTD SVG 1.1//EN" "http://www.w3.org/Graphics/SVG/1.1/DTD/svg11.dtd">
<svg xmlns="http://www.w3.org/2000/svg" id="b" width="191.33999633789062" height="169.6199951171875" viewBox="0 0 191.34 169.62"><defs><style>.d{fill:#00a886;}.d,.e,.f{stroke-width:0px;}.e{fill:#fff;}.f{fill:#2b328c;}</style></defs><g id="c"><path class="e" d="M148.18,18.64l-88.73.4c-4.46.02-8.58,2.43-10.78,6.31L10.14,93.16c-2.19,3.86-2.17,8.6.07,12.44l33.4,57.23c2.23,3.82,6.31,6.17,10.73,6.18l75.49.24c5,.02,9.53-2.96,11.5-7.55l38.75-90.37c1.55-3.61-5.12-18.08-7.09-21.48l-3.17-6.29c-2.24-3.87-17.16-24.93-21.64-24.91Z"/><path class="f" d="M79.04,43.55c-3.64,0-8.07,2.56-9.89,5.71l-45.75,79.23L1.37,90.35c-1.82-3.15-1.82-8.27,0-11.43L43.64,5.71c1.82-3.16,6.25-5.71,9.9-5.71h84.54c3.64,0,8.07,2.56,9.89,5.71l21.85,37.84h-90.78Z"/><path class="d" d="M44.84,164.58c2,2.58,3.91,3.92,7.43,4.89.36.1.74.15,1.12.15h1.48s82.94,0,82.94,0c3.64,0,8.07-2.56,9.89-5.71l42.27-73.21c1.82-3.15,1.82-8.27,0-11.43l-18.76-32.93-18.38,31.21h-57.56l-13.77,23.83h36.27l-16.59,28.75h-35.9c-.23,0-.44.12-.55.32"/></g></svg>